<svg width="64" height="64" viewBox="0 0 64 64" fill="none" xmlns="http://www.w3.org/2000/svg">
<path d="M5.91074 17.3182L19.9313 25.4131L33.952 17.3182" fill="#93D8E4"/>
<mask id="mask0_7_17" style="mask-type:luminance" maskUnits="userSpaceOnUse" x="0" y="0" width="64" height="64">
<path d="M0 3.8147e-06H63.9998V63.9998H0V3.8147e-06Z" fill="white"/>
</mask>
<g mask="url(#mask0_7_17)">
<path d="M38.6603 14.6001C38.4867 14.2994 38.237 14.0497 37.9363 13.8761L20.9202 4.05187C20.6195 3.87831 20.2785 3.78694 19.9313 3.78694C19.5841 3.78694 19.2431 3.87831 18.9424 4.05187L1.92636 13.8761C1.62565 14.0497 1.37594 14.2994 1.20236 14.6001L19.9313 25.4132L38.6603 14.6001Z" fill="#DAF1F4"/>
<path d="M1.2025 14.6001C1.02882 14.9007 0.937421 15.2418 0.9375 15.589V35.2375C0.937531 35.5847 1.02894 35.9257 1.20255 36.2264C1.37615 36.527 1.62583 36.7767 1.9265 36.9503L18.9426 46.7745C19.2432 46.9481 19.5843 47.0395 19.9314 47.0395V25.4132L1.2025 14.6001Z" fill="#B9E4EF"/>
<path d="M19.9313 25.4132V47.0395C20.2728 47.0395 20.6142 46.9511 20.9202 46.7745L30.5093 41.2383V33.2618C30.5093 32.6563 30.8323 32.0968 31.3567 31.794L38.9252 27.4243V15.589C38.9252 15.2357 38.8309 14.8957 38.6603 14.6001L19.9313 25.4132Z" fill="#93D8E4"/>
<path d="M34.771 34.7438L46.7857 41.6805L58.8006 34.7438" fill="#93D8E4"/>
<path d="M30.7364 32.4143C30.5876 32.6719 30.5093 32.9642 30.5094 33.2617V50.0992C30.5094 50.7047 30.8324 51.2642 31.3568 51.567L45.9384 59.9857C46.196 60.1345 46.4883 60.2129 46.7859 60.2128V41.6805L30.7364 32.4143Z" fill="#B9E4EF"/>
<path d="M62.8353 32.4143C62.6866 32.1566 62.4726 31.9427 62.215 31.794L47.6332 23.3752C47.3756 23.2264 47.0833 23.1481 46.7858 23.1481C46.4883 23.1481 46.196 23.2264 45.9384 23.3752L31.3568 31.794C31.0991 31.9427 30.8851 32.1566 30.7364 32.4143L46.7859 41.6805L62.8353 32.4143Z" fill="#DAF1F4"/>
<path d="M46.7857 41.6805V60.2128C47.0785 60.2128 47.371 60.1371 47.6331 59.9857L62.2149 51.567C62.4726 51.4182 62.6865 51.2043 62.8353 50.9466C62.984 50.689 63.0623 50.3967 63.0623 50.0992V33.2617C63.0623 32.959 62.9814 32.6677 62.8352 32.4143L46.7857 41.6805Z" fill="#93D8E4"/>
</g>
</svg>
