<?xml version="1.0" encoding="UTF-8"?>
<svg xmlns="http://www.w3.org/2000/svg" xmlns:xlink="http://www.w3.org/1999/xlink" width="64px" height="64px" viewBox="0 0 64 64" version="1.1">
<g id="surface1">
<path style=" stroke:none;fill-rule:nonzero;fill:rgb(100%,76.862746%,30.19608%);fill-opacity:1;" d="M 14 28 L 60 28 C 60.78125 28 62 28 62 30 C 62 43.261719 51.261719 54 38 54 C 29.859375 54 22.660156 49.941406 18.339844 43.761719 C 16.339844 40.898438 14.941406 37.578125 14.339844 34 C 14.339844 34 14 30 14 28 Z M 14 28 "/>
<path style="fill:none;stroke-width:2;stroke-linecap:round;stroke-linejoin:round;stroke:rgb(0%,0%,0%);stroke-opacity:1;stroke-miterlimit:4;" d="M 22 10 C 22 10 21 9 21 8 C 21 7 22 6 22 6 C 22 6 23 5 23 4 C 23 3 22 2 22 2 M 17 10 C 17 10 16 9 16 8 C 16 7 17 6 17 6 C 17 6 18 5 18 4 C 18 3 17 2 17 2 M 11 31 L 27 31 M 6 22.001953 C 6 22.001953 6 22 5 22 C 2.791016 22 1 20.208984 1 18 C 1 15.791016 2.791016 14 5 14 L 30 14 C 30.386719 14 31 14 31 15 C 31 21.626953 25.626953 27 19 27 C 13.054688 27 8.117188 22.673828 7.166016 16.998047 " transform="matrix(2,0,0,2,0,0)"/>
</g>
</svg>
