<svg width="64" height="64" viewBox="0 0 64 64" fill="none" xmlns="http://www.w3.org/2000/svg">
<rect width="64" height="64" fill="#F5F5F5"/>
<path d="M3.936 37.42L2.57 42.434C1.52346 46.2769 1.92857 50.3707 3.708 53.934C4.12595 54.7713 4.31545 55.704 4.25732 56.638C4.1992 57.572 3.89553 58.474 3.377 59.253C3.18125 59.5459 3.07774 59.8907 3.07983 60.243C3.08191 60.5953 3.18949 60.9389 3.38869 61.2295C3.58789 61.52 3.86958 61.7443 4.19742 61.8732C4.52526 62.0022 4.88422 62.03 5.228 61.953L7.69 61.405C9.37805 61.0287 11.1122 60.9023 12.837 61.03C17.33 61.367 26.639 62 32 62C37.361 62 46.67 61.364 51.165 61.032C52.8898 60.9043 54.624 61.0307 56.312 61.407L58.775 61.955C59.1187 62.0317 59.4775 62.0037 59.8052 61.8747C60.1328 61.7456 60.4143 61.5214 60.6134 61.2308C60.8124 60.9403 60.9199 60.5969 60.922 60.2447C60.9241 59.8925 60.8206 59.5478 60.625 59.255C60.1061 58.4762 59.8022 57.5741 59.7441 56.64C59.6859 55.706 59.8756 54.7731 60.294 53.936C62.0734 50.3727 62.4785 46.2789 61.432 42.436L60.064 37.42H3.936Z" fill="#B5B1A5"/>
<path d="M61.5 42.7L60.064 37.42H10.264C9.65012 37.4189 9.05299 37.6201 8.56494 37.9925C8.07689 38.3649 7.72511 38.8876 7.564 39.48C6.54423 43.2294 6.90661 47.2205 8.585 50.725L8.749 51.068C9.1457 51.8975 9.32008 52.8159 9.25505 53.733C9.19001 54.6502 8.88779 55.5348 8.378 56.3C8.18238 56.5928 8.07893 56.9375 8.081 57.2897C8.08307 57.6419 8.19056 57.9853 8.38962 58.2758C8.58867 58.5663 8.87017 58.7906 9.19783 58.9197C9.52549 59.0487 9.88429 59.0767 10.228 59L12.691 58.452C14.3791 58.0757 16.1132 57.9493 17.838 58.077C22.333 58.409 31.638 59.045 37.003 59.045C42.368 59.045 51.673 58.409 56.168 58.077C57.4819 57.9799 58.8025 58.0309 60.105 58.229C59.8341 57.5388 59.7111 56.7995 59.7438 56.0588C59.7766 55.3182 59.9643 54.5926 60.295 53.929C62.096 50.4712 62.5263 46.4612 61.5 42.7Z" fill="#D9D5CA"/>
<path d="M5 20C5 18.8 8.581 17.719 14.25 16.986H49.75C51.8557 17.229 53.9414 17.6223 55.991 18.163V27H5V20Z" fill="#B5B1A5"/>
<path d="M9.877 22.3L23.14 6.2C24.2144 4.8887 25.5664 3.83223 27.0985 3.10681C28.6307 2.38139 30.3048 2.0051 32 2.0051C33.6952 2.0051 35.3693 2.38139 36.9014 3.10681C38.4336 3.83223 39.7856 4.8887 40.86 6.2L53.644 21.715V27H9.877V22.3Z" fill="#F2F2F2"/>
<path d="M5 20L4.213 22.362C2.74659 26.7594 1.99932 31.3646 2 36C2 38.209 15.431 40 32 40C48.569 40 62 38.209 62 36V35.489C62 31.1911 61.3071 26.9213 59.948 22.844L58.629 19.335C58.4908 18.9667 58.2481 18.6468 57.9307 18.4145C57.6133 18.1822 57.235 18.0475 56.8422 18.027C56.4494 18.0065 56.0591 18.1011 55.7193 18.2992C55.3795 18.4972 55.1048 18.7901 54.929 19.142L53.268 22.465C46.2355 23.5827 39.1201 24.0962 32 24C17.088 24 5 22.212 5 20Z" fill="#F2EFE0"/>
<path d="M21 17.003H23V19.003H21V17.003ZM28 20.003H30V22.003H28V20.003ZM17 19.003H19V21.003H17V19.003ZM24 20.003H26V22.003H24V20.003ZM22 11.003H24V13.003H22V11.003ZM28 5.003H30V7.003H28V5.003ZM46 19.003H48V21.003H46V19.003ZM41 19.003H43V21.003H41V19.003ZM43 16.003H45V18.003H43V16.003ZM37 16.003H39V18.003H37V16.003Z" fill="white"/>
<path d="M18 29C18.2652 29 18.5196 29.1054 18.7071 29.2929C18.8946 29.4804 19 29.7348 19 30H21C21 29.4067 20.8241 28.8266 20.4944 28.3333C20.1648 27.8399 19.6962 27.4554 19.148 27.2284C18.5999 27.0013 17.9967 26.9419 17.4147 27.0576C16.8328 27.1734 16.2982 27.4591 15.8787 27.8787C15.4591 28.2982 15.1734 28.8328 15.0576 29.4147C14.9419 29.9967 15.0013 30.5999 15.2284 31.148C15.4554 31.6962 15.8399 32.1648 16.3333 32.4944C16.8266 32.8241 17.4067 33 18 33C18.1978 33 18.3911 33.0586 18.5556 33.1685C18.72 33.2784 18.8482 33.4346 18.9239 33.6173C18.9996 33.8 19.0194 34.0011 18.9808 34.1951C18.9422 34.3891 18.847 34.5673 18.7071 34.7071C18.5673 34.847 18.3891 34.9422 18.1951 34.9808C18.0011 35.0194 17.8 34.9996 17.6173 34.9239C17.4346 34.8482 17.2784 34.72 17.1685 34.5556C17.0586 34.3911 17 34.1978 17 34H15C15 34.5933 15.1759 35.1734 15.5056 35.6667C15.8352 36.1601 16.3038 36.5446 16.8519 36.7716C17.4001 36.9987 18.0033 37.0581 18.5853 36.9424C19.1672 36.8266 19.7018 36.5409 20.1213 36.1213C20.5409 35.7018 20.8266 35.1672 20.9424 34.5853C21.0581 34.0033 20.9987 33.4001 20.7716 32.852C20.5446 32.3038 20.1601 31.8352 19.6667 31.5056C19.1734 31.1759 18.5933 31 18 31C17.7348 31 17.4804 30.8946 17.2929 30.7071C17.1054 30.5196 17 30.2652 17 30C17 29.7348 17.1054 29.4804 17.2929 29.2929C17.4804 29.1054 17.7348 29 18 29ZM26 34C26 34.2652 25.8946 34.5196 25.7071 34.7071C25.5196 34.8946 25.2652 35 25 35C24.7348 35 24.4804 34.8946 24.2929 34.7071C24.1054 34.5196 24 34.2652 24 34V27H22V34C22 34.7956 22.3161 35.5587 22.8787 36.1213C23.4413 36.6839 24.2044 37 25 37C25.7956 37 26.5587 36.6839 27.1213 36.1213C27.6839 35.5587 28 34.7956 28 34V27H26V34ZM32 27C31.2044 27 30.4413 27.3161 29.8787 27.8787C29.3161 28.4413 29 29.2044 29 30V34C29 34.7956 29.3161 35.5587 29.8787 36.1213C30.4413 36.6839 31.2044 37 32 37C32.7956 37 33.5587 36.6839 34.1213 36.1213C34.6839 35.5587 35 34.7956 35 34V33C35 32.7348 34.8946 32.4804 34.7071 32.2929C34.5196 32.1054 34.2652 32 34 32H32V34H33C33 34.2652 32.8946 34.5196 32.7071 34.7071C32.5196 34.8946 32.2652 35 32 35C31.7348 35 31.4804 34.8946 31.2929 34.7071C31.1054 34.5196 31 34.2652 31 34V30C31 29.7348 31.1054 29.4804 31.2929 29.2929C31.4804 29.1054 31.7348 29 32 29C32.2652 29 32.5196 29.1054 32.7071 29.2929C32.8946 29.4804 33 29.7348 33 30V31H35V30C35 29.2044 34.6839 28.4413 34.1213 27.8787C33.5587 27.3161 32.7956 27 32 27ZM40 27H38C37.7538 27 37.5163 27.0908 37.3329 27.255C37.1495 27.4192 37.0331 27.6453 37.006 27.89L36.006 36.89L37.994 37.11L38.34 34H39.66L40.006 37.11L41.994 36.89L40.994 27.89C40.9669 27.6453 40.8505 27.4192 40.6671 27.255C40.4837 27.0908 40.2462 27 40 27ZM38.562 32L38.896 29H39.1L39.434 32H38.562ZM49 30C49 29.2044 48.6839 28.4413 48.1213 27.8787C47.5587 27.3161 46.7956 27 46 27H44C43.7348 27 43.4804 27.1054 43.2929 27.2929C43.1054 27.4804 43 27.7348 43 28V37H45V33H45.817L47.038 37.275L48.962 36.725L47.737 32.44C48.1271 32.1638 48.4454 31.7981 48.6651 31.3735C48.8849 30.949 48.9997 30.478 49 30ZM45 29H46C46.2652 29 46.5196 29.1054 46.7071 29.2929C46.8946 29.4804 47 29.7348 47 30C47 30.2652 46.8946 30.5196 46.7071 30.7071C46.5196 30.8946 46.2652 31 46 31H45V29Z" fill="#C64635"/>
<path d="M18 29C18.2652 29 18.5196 29.1054 18.7071 29.2929C18.8946 29.4804 19 29.7348 19 30H21C21 29.4067 20.8241 28.8266 20.4944 28.3333C20.1648 27.8399 19.6962 27.4554 19.148 27.2284C18.5999 27.0013 17.9967 26.9419 17.4147 27.0576C16.8328 27.1734 16.2982 27.4591 15.8787 27.8787C15.4591 28.2982 15.1734 28.8328 15.0576 29.4147C14.9419 29.9967 15.0013 30.5999 15.2284 31.1481C15.4554 31.6962 15.8399 32.1648 16.3333 32.4944C16.8266 32.8241 17.4067 33 18 33C18.1978 33 18.3911 33.0586 18.5556 33.1685C18.72 33.2784 18.8482 33.4346 18.9239 33.6173C18.9996 33.8 19.0194 34.0011 18.9808 34.1951C18.9422 34.3891 18.847 34.5673 18.7071 34.7071C18.5673 34.847 18.3891 34.9422 18.1951 34.9808C18.0011 35.0194 17.8 34.9996 17.6173 34.9239C17.4346 34.8482 17.2784 34.72 17.1685 34.5556C17.0586 34.3911 17 34.1978 17 34H15C15 34.5933 15.1759 35.1734 15.5056 35.6667C15.8352 36.1601 16.3038 36.5446 16.8519 36.7716C17.4001 36.9987 18.0033 37.0581 18.5853 36.9424C19.1672 36.8266 19.7018 36.5409 20.1213 36.1213C20.5409 35.7018 20.8266 35.1672 20.9424 34.5853C21.0581 34.0033 20.9987 33.4001 20.7716 32.852C20.5446 32.3038 20.1601 31.8352 19.6667 31.5056C19.1734 31.1759 18.5933 31 18 31C17.7348 31 17.4804 30.8946 17.2929 30.7071C17.1054 30.5196 17 30.2652 17 30C17 29.7348 17.1054 29.4804 17.2929 29.2929C17.4804 29.1054 17.7348 29 18 29ZM26 34C26 34.2652 25.8946 34.5196 25.7071 34.7071C25.5196 34.8946 25.2652 35 25 35C24.7348 35 24.4804 34.8946 24.2929 34.7071C24.1054 34.5196 24 34.2652 24 34V27H22V34C22 34.7956 22.3161 35.5587 22.8787 36.1213C23.4413 36.6839 24.2044 37 25 37C25.7956 37 26.5587 36.6839 27.1213 36.1213C27.6839 35.5587 28 34.7956 28 34V27H26V34ZM35 34V33C35 32.7348 34.8946 32.4804 34.7071 32.2929C34.5196 32.1054 34.2652 32 34 32H32V34H33C33 34.2652 32.8946 34.5196 32.7071 34.7071C32.5196 34.8946 32.2652 35 32 35C31.7348 35 31.4804 34.8946 31.2929 34.7071C31.1054 34.5196 31 34.2652 31 34V30C31 29.7348 31.1054 29.4804 31.2929 29.2929C31.4804 29.1054 31.7348 29 32 29C32.2652 29 32.5196 29.1054 32.7071 29.2929C32.8946 29.4804 33 29.7348 33 30V31H35V30C35 29.2044 34.6839 28.4413 34.1213 27.8787C33.5587 27.3161 32.7956 27 32 27C31.2044 27 30.4413 27.3161 29.8787 27.8787C29.3161 28.4413 29 29.2044 29 30V34C29 34.7956 29.3161 35.5587 29.8787 36.1213C30.4413 36.6839 31.2044 37 32 37C32.7956 37 33.5587 36.6839 34.1213 36.1213C34.6839 35.5587 35 34.7956 35 34ZM38.34 34H39.66L40.006 37.11L41.994 36.89L40.994 27.89C40.9669 27.6453 40.8505 27.4192 40.6671 27.255C40.4837 27.0908 40.2462 27 40 27H38C37.7538 27 37.5163 27.0908 37.3329 27.255C37.1495 27.4192 37.0331 27.6453 37.006 27.89L36.006 36.89L37.994 37.11L38.34 34ZM39.104 29L39.438 32H38.562L38.896 29H39.104ZM45 33H45.817L47.038 37.275L48.962 36.725L47.737 32.437C48.2558 32.0694 48.6442 31.5462 48.8457 30.9432C49.0473 30.3401 49.0517 29.6885 48.8582 29.0828C48.6647 28.4772 48.2833 27.9488 47.7695 27.5743C47.2556 27.1998 46.6358 26.9987 46 27H44C43.7348 27 43.4804 27.1054 43.2929 27.2929C43.1054 27.4804 43 27.7348 43 28V37H45V33ZM45 29H46C46.2652 29 46.5196 29.1054 46.7071 29.2929C46.8946 29.4804 47 29.7348 47 30C47 30.2652 46.8946 30.5196 46.7071 30.7071C46.5196 30.8946 46.2652 31 46 31H45V29Z" fill="black"/>
<path d="M61.26 38C62.692 37.328 63 36.64 63 36V35.489C63.0002 31.0699 62.2856 26.6799 60.884 22.489L59.565 18.98C59.3629 18.4269 59.0014 17.946 58.5262 17.5982C58.051 17.2505 57.4833 17.0513 56.895 17.026C56.5797 17.0092 56.2637 17.0409 55.958 17.12C54.088 16.6421 52.1895 16.2837 50.274 16.047L41.613 5.537C40.4431 4.11636 38.9729 2.97266 37.3081 2.1882C35.6434 1.40375 33.8254 0.998022 31.9851 1.00022C30.1447 1.00242 28.3278 1.41249 26.6649 2.20092C25.002 2.98936 23.5345 4.13656 22.368 5.56L13.726 16.05C4.658 17.27 4.042 18.963 4 19.83L3.262 22.045C1.76105 26.5444 0.997198 31.2568 1 36C1 36.641 1.308 37.328 2.741 38L1.605 42.168C0.490868 46.249 0.921348 50.5976 2.814 54.381C3.15086 55.0575 3.30466 55.8104 3.2601 56.5649C3.21553 57.3193 2.97416 58.0489 2.56 58.681L2.542 58.706C2.23651 59.165 2.07533 59.7049 2.07917 60.2562C2.08302 60.8075 2.25172 61.3451 2.56358 61.7998C2.87544 62.2544 3.31619 62.6054 3.82915 62.8075C4.34211 63.0097 4.90381 63.0537 5.442 62.934L7.9 62.383C9.49335 62.0283 11.1301 61.9091 12.758 62.029C17.671 62.392 26.7 63 32 63C37.3 63 46.33 62.392 51.239 62.029C52.8666 61.9088 54.503 62.0281 56.096 62.383L58.558 62.931C59.0968 63.0515 59.6593 63.0078 60.1731 62.8056C60.6868 62.6034 61.1282 62.2519 61.4402 61.7965C61.7523 61.341 61.9208 60.8025 61.924 60.2504C61.9272 59.6984 61.7648 59.158 61.458 58.699C61.0377 58.066 60.7916 57.3334 60.7446 56.5749C60.6975 55.8165 60.8512 55.0591 61.19 54.379C63.0821 50.5966 63.513 46.2492 62.4 42.169L61.26 38ZM54.025 18.714L53.437 19.89L52.179 18.362C52.84 18.475 53.457 18.592 54.025 18.714ZM23.893 6.854C24.8717 5.651 26.1058 4.68081 27.5058 4.01375C28.9058 3.3467 30.4367 2.99949 31.9875 2.99728C33.5384 2.99508 35.0702 3.33795 36.4722 4.00102C37.8741 4.6641 39.1109 5.63078 40.093 6.831L52.274 21.622C45.5631 22.617 38.7838 23.0777 32 23C25.2149 23.0812 18.4341 22.6217 11.722 21.626L23.893 6.854ZM11.825 18.354L9.488 21.193C8.3032 21.0122 7.16243 20.6124 6.124 20.014C6.524 19.724 7.848 19.032 11.825 18.357V18.354ZM5.161 22.678L5.418 21.91C6.629 22.579 8.828 23.235 12.762 23.817C19.1393 24.6585 25.5676 25.0538 32 25C39.1823 25.0967 46.3596 24.5771 53.453 23.447C53.6044 23.4185 53.7472 23.3553 53.8702 23.2625C53.9931 23.1697 54.093 23.0498 54.162 22.912L55.823 19.589C55.9122 19.4115 56.0513 19.2638 56.2232 19.164C56.3951 19.0643 56.5923 19.0168 56.7907 19.0275C56.9891 19.0381 57.1802 19.1063 57.3404 19.2238C57.5007 19.3413 57.6232 19.503 57.693 19.689L59 23.16C60.326 27.1352 61.0014 31.2985 61 35.489V35.862C59.768 37.166 48.946 39 32 39C15.054 39 4.233 37.167 3 35.862C3.01333 31.3803 3.74287 26.9295 5.161 22.678ZM59.4 53.487C58.9049 54.4832 58.6812 55.5924 58.7514 56.7027C58.8216 57.8129 59.1833 58.8851 59.8 59.811C59.8839 59.9378 59.928 60.0867 59.9268 60.2387C59.9256 60.3907 59.879 60.5389 59.7932 60.6643C59.7073 60.7897 59.5859 60.8866 59.4446 60.9427C59.3033 60.9988 59.1485 61.0114 59 60.979L56.538 60.431C54.755 60.0327 52.9231 59.8979 51.101 60.031C46.211 60.4 37.24 61 32 61C26.76 61 17.79 60.4 12.909 60.035C11.0865 59.9003 9.25415 60.0351 7.471 60.435L5.009 60.983C4.86173 61.0153 4.70821 61.0032 4.56776 60.9484C4.42731 60.8936 4.30622 60.7985 4.21973 60.675C4.13323 60.5515 4.08521 60.4052 4.0817 60.2545C4.07819 60.1038 4.11935 59.9554 4.2 59.828L4.214 59.808C4.82763 58.8808 5.18635 57.8085 5.25411 56.6987C5.32187 55.589 5.09627 54.4809 4.6 53.486C2.9287 50.1424 2.5495 46.2998 3.535 42.694L4.629 38.678C6.6085 39.1976 8.62167 39.5792 10.654 39.82C17.7376 40.6599 24.867 41.054 32 41C39.133 41.054 46.2624 40.6599 53.346 39.82C55.3787 39.5792 57.3922 39.1977 59.372 38.678L60.466 42.694C61.4507 46.3003 61.0712 50.143 59.4 53.487Z" fill="black"/>
<path d="M21 17H23V19H21V17ZM28 20H30V22H28V20ZM17 19H19V21H17V19ZM24 20H26V22H24V20ZM22 11H24V13H22V11ZM28 5H30V7H28V5ZM46 19H48V21H46V19ZM41 19H43V21H41V19ZM43 16H45V18H43V16ZM37 16H39V18H37V16Z" fill="black"/>
</svg>
