<?xml version="1.0" encoding="UTF-8"?>
<svg xmlns="http://www.w3.org/2000/svg" xmlns:xlink="http://www.w3.org/1999/xlink" width="64px" height="64px" viewBox="0 0 64 64" version="1.1">
<g id="surface1">
<path style="fill:none;stroke-width:1.5;stroke-linecap:butt;stroke-linejoin:miter;stroke:rgb(10.980392%,15.294118%,29.803923%);stroke-opacity:1;stroke-miterlimit:4;" d="M 7.5 18 C 8.329102 18 9 18.670898 9 19.5 C 9 20.329102 8.329102 21 7.5 21 C 6.670898 21 6 20.329102 6 19.5 C 6 18.670898 6.670898 18 7.5 18 Z M 7.5 18 " transform="matrix(2.666667,0,0,2.666667,0,0)"/>
<path style="fill:none;stroke-width:1.5;stroke-linecap:butt;stroke-linejoin:miter;stroke:rgb(10.980392%,15.294118%,29.803923%);stroke-opacity:1;stroke-miterlimit:4;" d="M 16.5 18 C 17.329102 18 18 18.670898 18 19.5 C 18 20.329102 17.329102 21 16.5 21 C 15.670898 21 15 20.329102 15 19.5 C 15 18.670898 15.670898 18 16.5 18 Z M 16.5 18 " transform="matrix(2.666667,0,0,2.666667,0,0)"/>
<path style="fill:none;stroke-width:1.5;stroke-linecap:round;stroke-linejoin:round;stroke:rgb(10.980392%,15.294118%,29.803923%);stroke-opacity:1;stroke-miterlimit:4;" d="M 10.999512 10.800293 L 12.143555 12 L 15 9 " transform="matrix(2.666667,0,0,2.666667,0,0)"/>
<path style="fill:none;stroke-width:1.5;stroke-linecap:round;stroke-linejoin:miter;stroke:rgb(10.980392%,15.294118%,29.803923%);stroke-opacity:1;stroke-miterlimit:4;" d="M 1.999512 3 L 2.261719 3.092285 C 3.5625 3.549316 4.212891 3.777832 4.586426 4.322754 C 4.958496 4.867676 4.958496 5.591309 4.958496 7.038574 L 4.958496 9.760254 C 4.958496 12.70166 5.021484 13.672852 5.887207 14.586914 C 6.754395 15.499512 8.148926 15.499512 10.937988 15.499512 L 12 15.499512 M 16.240723 15.499512 C 17.800781 15.499512 18.581543 15.499512 19.133789 15.049805 C 19.68457 14.600098 19.842773 13.836914 20.157715 12.307617 L 20.657227 9.883301 C 21.004395 8.143066 21.178711 7.274414 20.734863 6.697266 C 20.291016 6.120117 18.773437 6.120117 17.088867 6.120117 L 11.022949 6.120117 M 4.958496 6.120117 L 7.000488 6.120117 " transform="matrix(2.666667,0,0,2.666667,0,0)"/>
</g>
</svg>
