<svg width="64" height="64" viewBox="0 0 64 64" fill="none" xmlns="http://www.w3.org/2000/svg">
<g clip-path="url(#clip0_8_125)">
<path d="M4.45629 36.1739L3.31473 25.0435H31.7668L30.6251 36.1739H4.45629Z" fill="#21CE62"/>
<path d="M5.97333 51.0145L4.45629 36.1739H30.6251L29.1082 51.0145H5.97333Z" fill="#217C62"/>
<path d="M4.49042 25.0435C4.16705 25.0435 3.84906 24.9625 3.56666 24.8085C3.28425 24.6543 3.04683 24.4321 2.87696 24.1629C2.70707 23.8938 2.61038 23.5866 2.59605 23.2705C2.58173 22.9546 2.65027 22.6401 2.79514 22.3573L5.21482 17.6232H29.8667L32.2863 22.3573C32.4312 22.6401 32.4998 22.9546 32.4854 23.2705C32.471 23.5866 32.3745 23.8938 32.2045 24.1629C32.0347 24.4321 31.7972 24.6543 31.5149 24.8085C31.2324 24.9625 30.9144 25.0435 30.591 25.0435H4.49042Z" fill="#F2F2F2"/>
<path d="M7.11111 62.145L5.96954 51.0145H29.1119L27.9704 62.145H7.11111ZM38.4038 45.4493L37.4481 39.8841H60.2112L59.2555 45.4493H38.4038Z" fill="#21CE62"/>
<path d="M40.2962 56.5798L38.3962 45.4493H59.263L57.3629 56.5798H40.2962Z" fill="#217C62"/>
<path d="M38.6237 39.8841C38.3004 39.8841 37.9824 39.8031 37.7 39.649C37.4175 39.495 37.1802 39.2728 37.0103 39.0035C36.8404 38.7343 36.7437 38.4271 36.7295 38.1112C36.7151 37.7951 36.7836 37.4808 36.9284 37.1979L39.3482 32.4637H58.3111L60.7307 37.1979C60.8757 37.4808 60.9442 37.7951 60.9299 38.1112C60.9156 38.4271 60.8189 38.7343 60.649 39.0035C60.4791 39.2728 60.2416 39.495 59.9593 39.649C59.6769 39.8031 59.3589 39.8841 59.0354 39.8841H38.6237Z" fill="#F2F2F2"/>
<path d="M41.2444 62.145L40.3001 56.5798H57.3592L56.4149 62.145H41.2444Z" fill="#21CE62"/>
<path d="M32.1422 26.8985H2.93926C2.45567 26.8975 1.9803 26.7761 1.55796 26.5457C1.13563 26.3151 0.780225 25.9833 0.525252 25.5814C0.270279 25.1793 0.124129 24.7204 0.100578 24.2479C0.0770264 23.7754 0.176849 23.3048 0.390638 22.8804L2.97718 17.8198C3.29337 17.2008 3.78021 16.6806 4.38272 16.3181C4.98522 15.9555 5.67936 15.765 6.38673 15.7681H28.6948C29.3985 15.7681 30.0884 15.9597 30.6871 16.3214C31.2859 16.6831 31.77 17.2006 32.0853 17.8161L34.6719 22.873C34.8867 23.2963 34.9879 23.766 34.9662 24.2381C34.9444 24.7101 34.8002 25.169 34.5473 25.5715C34.2943 25.9741 33.9409 26.3071 33.5201 26.5393C33.0994 26.7713 32.6252 26.895 32.1422 26.8985ZM4.49042 23.1885H30.591L28.6948 19.4783H6.38673L4.49042 23.1885Z" fill="#1A1A1A"/>
<path d="M30.026 60.6609C29.9319 61.5754 29.4943 62.4232 28.7979 63.0401C28.1014 63.657 27.1957 63.999 26.2561 64H8.8102C7.87064 63.999 6.96488 63.657 6.2684 63.0401C5.57193 62.4232 5.13431 61.5754 5.04036 60.6609L1.42222 25.2289C1.39492 24.752 1.55679 24.283 1.87413 23.9199C2.19147 23.5567 2.63982 23.3273 3.12573 23.2796C3.61166 23.2317 4.09772 23.3692 4.48265 23.6632C4.86757 23.9571 5.12169 24.3853 5.19206 24.858L8.82536 60.2898H26.2713L29.8667 24.858C29.881 24.6079 29.9469 24.3631 30.0605 24.1386C30.1742 23.914 30.3332 23.7144 30.5279 23.5516C30.7224 23.3888 30.9488 23.2662 31.1932 23.1914C31.4377 23.1165 31.6949 23.0908 31.9498 23.116C32.2047 23.141 32.4516 23.2163 32.6758 23.3373C32.9001 23.4584 33.097 23.6225 33.2545 23.82C33.4123 24.0174 33.5273 24.244 33.5929 24.4863C33.6586 24.7283 33.6734 24.981 33.6366 25.2289L30.026 60.6609ZM60.5867 41.7391H37.0726C36.5889 41.7382 36.1136 41.6167 35.6912 41.3862C35.269 41.1558 34.9136 40.8239 34.6586 40.4218C34.4036 40.0199 34.2575 39.561 34.2339 39.0886C34.2104 38.6159 34.3101 38.1454 34.524 37.721L37.1105 32.6605C37.4268 32.0415 37.9136 31.5213 38.5161 31.1587C39.1185 30.7961 39.8127 30.6056 40.5201 30.6087H57.1392C57.8429 30.6087 58.5328 30.8003 59.1316 31.162C59.7303 31.5236 60.2145 32.0412 60.5298 32.6567L63.1164 37.7137C63.3311 38.1369 63.4324 38.6066 63.4106 39.0787C63.3889 39.5506 63.2447 40.0096 62.9918 40.4121C62.7388 40.8146 62.3854 41.1477 61.9645 41.3798C61.5438 41.612 61.0697 41.7357 60.5867 41.7391ZM38.6389 38.0289H59.0507L57.1544 34.3189H40.5201L38.6389 38.0289Z" fill="#1A1A1A"/>
<path d="M58.5462 60.8984C58.399 61.7646 57.9425 62.5518 57.2577 63.1197C56.573 63.6876 55.7045 63.9996 54.8068 64H42.8526C41.9541 64.0004 41.0847 63.6889 40.3992 63.121C39.7137 62.5529 39.2566 61.7653 39.1093 60.8984L35.5822 40.1882C35.5159 39.7103 35.6426 39.226 35.9353 38.8378C36.228 38.4497 36.6638 38.1884 37.1502 38.1092C37.6364 38.0302 38.1352 38.1394 38.5405 38.4139C38.946 38.6884 39.226 39.1066 39.3216 39.5798L42.8526 60.2898H54.8068L58.3377 39.5798C58.4331 39.1066 58.7133 38.6884 59.1187 38.4139C59.5241 38.1394 60.0228 38.0302 60.5092 38.1092C60.9956 38.1884 61.4312 38.4497 61.724 38.8378C62.0167 39.226 62.1433 39.7103 62.0772 40.1882L58.5462 60.8984ZM29.8667 38.0289H5.21482C4.71188 38.0289 4.22956 37.8336 3.87393 37.4856C3.51831 37.1378 3.31851 36.6659 3.31851 36.1739C3.31851 35.6819 3.51831 35.21 3.87393 34.8622C4.22956 34.5142 4.71188 34.3189 5.21482 34.3189H29.8667C30.3696 34.3189 30.852 34.5142 31.2075 34.8622C31.5632 35.21 31.7629 35.6819 31.7629 36.1739C31.7629 36.6659 31.5632 37.1378 31.2075 37.4856C30.852 37.8336 30.3696 38.0289 29.8667 38.0289ZM27.9704 52.8696H7.11111C6.60818 52.8696 6.12585 52.6741 5.77023 52.3263C5.4146 51.9783 5.21482 51.5065 5.21482 51.0145C5.21482 50.5224 5.4146 50.0506 5.77023 49.7028C6.12585 49.3549 6.60818 49.1594 7.11111 49.1594H27.9704C28.4733 49.1594 28.9556 49.3549 29.3113 49.7028C29.6668 50.0506 29.8667 50.5224 29.8667 51.0145C29.8667 51.5065 29.6668 51.9783 29.3113 52.3263C28.9556 52.6741 28.4733 52.8696 27.9704 52.8696Z" fill="#1A1A1A"/>
<path d="M58.3111 47.3043H39.3482C38.8452 47.3043 38.3629 47.1089 38.0073 46.761C37.6516 46.4131 37.4518 45.9413 37.4518 45.4493C37.4518 44.9572 37.6516 44.4854 38.0073 44.1376C38.3629 43.7896 38.8452 43.5942 39.3482 43.5942H58.3111C58.814 43.5942 59.2964 43.7896 59.652 44.1376C60.0077 44.4854 60.2074 44.9572 60.2074 45.4493C60.2074 45.9413 60.0077 46.4131 59.652 46.761C59.2964 47.1089 58.814 47.3043 58.3111 47.3043ZM56.4149 58.4348H41.2444C40.7415 58.4348 40.2591 58.2393 39.9036 57.8915C39.5479 57.5435 39.3482 57.0717 39.3482 56.5798C39.3482 56.0876 39.5479 55.6159 39.9036 55.268C40.2591 54.9201 40.7415 54.7246 41.2444 54.7246H56.4149C56.9178 54.7246 57.4 54.9201 57.7557 55.268C58.1113 55.6159 58.3111 56.0876 58.3111 56.5798C58.3111 57.0717 58.1113 57.5435 57.7557 57.8915C57.4 58.2393 56.9178 58.4348 56.4149 58.4348Z" fill="#1A1A1A"/>
<path d="M14.6962 13.913C14.1934 13.913 13.711 13.7176 13.3554 13.3697C12.9998 13.0218 12.8 12.55 12.8 12.058V10.6407C12.8003 10.2969 12.703 9.95969 12.5188 9.66685C12.3346 9.374 12.0709 9.13699 11.757 8.98226C10.9288 8.58268 10.2319 7.96356 9.74576 7.19545C9.25963 6.42733 9.0038 5.54109 9.0074 4.63768V2.78261C9.0074 2.29062 9.2072 1.81877 9.56282 1.47087C9.91844 1.12298 10.4008 0.927533 10.9037 0.927533C11.4066 0.927533 11.889 1.12298 12.2446 1.47087C12.6002 1.81877 12.8 2.29062 12.8 2.78261V4.63768C12.7987 4.8503 12.8584 5.05902 12.9724 5.24006C13.0864 5.42109 13.25 5.56718 13.4447 5.66168C14.393 6.12047 15.1906 6.83027 15.7471 7.71043C16.3036 8.59059 16.5965 9.6058 16.5926 10.6407V12.058C16.5926 12.55 16.3928 13.0218 16.0371 13.3697C15.6816 13.7176 15.1993 13.913 14.6962 13.913ZM22.2815 13.913C21.7785 13.913 21.2962 13.7176 20.9407 13.3697C20.585 13.0218 20.3851 12.55 20.3851 12.058V10.6407C20.3856 10.2969 20.2881 9.95969 20.104 9.66685C19.9198 9.374 19.6561 9.13699 19.3422 8.98226C18.5139 8.58268 17.817 7.96356 17.3309 7.19545C16.8448 6.42733 16.5889 5.54109 16.5926 4.63768C16.5926 4.14568 16.7923 3.67384 17.148 3.32594C17.5036 2.97805 17.986 2.78261 18.4889 2.78261C18.9918 2.78261 19.4742 2.97805 19.8298 3.32594C20.1855 3.67384 20.3851 4.14568 20.3851 4.63768C20.3839 4.8503 20.4436 5.05902 20.5575 5.24006C20.6716 5.42109 20.8353 5.56718 21.03 5.66168C21.9782 6.12047 22.7759 6.83027 23.3323 7.71043C23.8888 8.59059 24.1818 9.6058 24.1778 10.6407V12.058C24.1778 12.55 23.978 13.0218 23.6224 13.3697C23.2667 13.7176 22.7844 13.913 22.2815 13.913ZM45.0371 28.7537C44.534 28.7537 44.0518 28.5582 43.6962 28.2102C43.3405 27.8624 43.1407 27.3906 43.1407 26.8985V25.4813C43.1411 25.1374 43.0437 24.8003 42.8595 24.5074C42.6753 24.2145 42.4117 23.9776 42.0978 23.8229C41.2695 23.4233 40.5726 22.8042 40.0865 22.036C39.6004 21.2679 39.3445 20.3816 39.3482 19.4783V17.6232C39.3482 17.1311 39.5479 16.6593 39.9036 16.3115C40.2591 15.9635 40.7415 15.7681 41.2444 15.7681C41.7473 15.7681 42.2298 15.9635 42.5853 16.3115C42.941 16.6593 43.1407 17.1311 43.1407 17.6232V19.4783C43.1394 19.6909 43.1991 19.8995 43.3131 20.0807C43.4271 20.2617 43.5908 20.4078 43.7855 20.5023C44.7337 20.9611 45.5314 21.6708 46.0878 22.551C46.6443 23.4312 46.9373 24.4463 46.9333 25.4813V26.8985C46.9333 27.3906 46.7335 27.8624 46.378 28.2102C46.0223 28.5582 45.54 28.7537 45.0371 28.7537ZM52.6222 28.7537C52.1193 28.7537 51.6369 28.5582 51.2814 28.2102C50.9257 27.8624 50.726 27.3906 50.726 26.8985V25.4813C50.7263 25.1374 50.629 24.8003 50.4448 24.5074C50.2606 24.2145 49.9968 23.9776 49.6829 23.8229C48.8548 23.4233 48.1579 22.8042 47.6718 22.036C47.1855 21.2679 46.9298 20.3816 46.9333 19.4783C46.9333 18.9863 47.1332 18.5144 47.4887 18.1665C47.8444 17.8186 48.3267 17.6232 48.8296 17.6232C49.3326 17.6232 49.8149 17.8186 50.1705 18.1665C50.5262 18.5144 50.726 18.9863 50.726 19.4783C50.7246 19.6909 50.7843 19.8995 50.8983 20.0807C51.0123 20.2617 51.176 20.4078 51.3707 20.5023C52.3189 20.9611 53.1166 21.6708 53.6731 22.551C54.2295 23.4312 54.5225 24.4463 54.5185 25.4813V26.8985C54.5185 27.3906 54.3188 27.8624 53.9631 28.2102C53.6075 28.5582 53.1251 28.7537 52.6222 28.7537Z" fill="#B3B3B3"/>
<path d="M20.3851 45.4493H14.6962C14.1934 45.4493 13.711 45.2538 13.3554 44.9059C12.9998 44.5581 12.8 44.0863 12.8 43.5942C12.8 43.1022 12.9998 42.6304 13.3554 42.2824C13.711 41.9346 14.1934 41.7391 14.6962 41.7391H20.3851C20.8882 41.7391 21.3705 41.9346 21.726 42.2824C22.0817 42.6304 22.2815 43.1022 22.2815 43.5942C22.2815 44.0863 22.0817 44.5581 21.726 44.9059C21.3705 45.2538 20.8882 45.4493 20.3851 45.4493ZM50.726 52.8696H46.9333C46.4304 52.8696 45.948 52.6741 45.5925 52.3263C45.2368 51.9783 45.0371 51.5065 45.0371 51.0145C45.0371 50.5224 45.2368 50.0506 45.5925 49.7028C45.948 49.3549 46.4304 49.1594 46.9333 49.1594H50.726C51.2289 49.1594 51.7111 49.3549 52.0668 49.7028C52.4224 50.0506 52.6222 50.5224 52.6222 51.0145C52.6222 51.5065 52.4224 51.9783 52.0668 52.3263C51.7111 52.6741 51.2289 52.8696 50.726 52.8696Z" fill="#90FFBB"/>
</g>
<defs>
<clipPath id="clip0_8_125">
<rect width="64" height="64" fill="white"/>
</clipPath>
</defs>
</svg>
